<?xml version="1.0" standalone="no"?>
<!DOCTYPE svg PUBLIC "-//W3C//DTD SVG 20010904//EN"
 "http://www.w3.org/TR/2001/REC-SVG-20010904/DTD/svg10.dtd">
<svg version="1.0" xmlns="http://www.w3.org/2000/svg"
 width="520.000000pt" height="520.000000pt" viewBox="0 0 520.000000 520.000000"
 preserveAspectRatio="xMidYMid meet">
<metadata>
Created by potrace 1.11, written by Peter Selinger 2001-2013
</metadata>
<g transform="translate(0.000000,520.000000) scale(0.100000,-0.100000)"
fill="#000000" stroke="none">
<path d="M0 2600 l0 -2600 2600 0 2600 0 0 2600 0 2600 -2600 0 -2600 0 0
-2600z m2940 2075 c260 -38 524 -122 744 -235 214 -109 283 -167 339 -280 30
-61 32 -71 32 -175 0 -103 -2 -114 -32 -177 -40 -86 -109 -155 -196 -198 -57
-28 -81 -33 -160 -37 -106 -6 -172 12 -277 73 -178 104 -413 197 -594 235
-131 28 -338 30 -440 5 -198 -48 -326 -175 -326 -323 l0 -44 -28 15 c-53 28
-207 153 -272 222 -78 83 -135 168 -169 249 -20 47 -25 78 -25 145 -1 77 2 92
32 152 38 78 127 167 229 227 114 68 346 135 553 161 111 13 456 5 590 -15z
m-1560 -675 c63 -231 309 -494 628 -671 221 -123 412 -193 852 -313 348 -95
510 -150 680 -232 297 -144 472 -304 576 -528 124 -269 124 -689 1 -988 -136
-329 -414 -565 -800 -682 -207 -63 -340 -80 -612 -80 -329 0 -543 34 -850 135
-258 85 -611 274 -732 391 -143 139 -163 380 -44 538 90 120 216 177 371 168
107 -6 151 -25 310 -132 134 -91 316 -182 448 -226 397 -132 811 -110 997 53
85 74 126 196 105 316 -14 84 -48 141 -113 192 -113 90 -269 148 -746 279
-430 118 -531 153 -734 257 -331 169 -503 396 -562 737 -19 115 -20 366 0 478
26 149 93 318 169 428 l31 45 6 -60 c3 -33 12 -80 19 -105z"/>
</g>
</svg>
